<svg width="123" height="140" viewBox="0 0 123 140" fill="none" xmlns="http://www.w3.org/2000/svg">
<path d="M84.8105 138.63L88.6105 132.99H95.2805L99.0806 138.63V139.59H84.8105V138.63Z" fill="#253245"/>
<path d="M12.8204 41.86H6.15039V52.06H12.8204V41.86Z" fill="#253245"/>
<path d="M95.2794 97.56H88.6094V138.49H95.2794V97.56Z" fill="#FC5358"/>
<path d="M62.8506 72.19H7.64062V75.85H58.3306L62.8506 72.19Z" fill="#253245"/>
<path d="M60.3203 75.85H69.5303V72.19H64.8503L60.3203 75.85Z" fill="#253245"/>
<path d="M95.2806 139.59H83.1406L88.5306 137.22H95.2706L95.2806 139.59Z" fill="#FC5358"/>
<path d="M18.3209 95.35H0.710938L6.10094 92.98H12.8409L18.3209 95.35Z" fill="#FCCBC6"/>
<path d="M83.1406 97.56H100.751L95.3606 99.93H88.6206L83.1406 97.56Z" fill="#FC5358"/>
<path d="M12.8009 52.06H6.13086V92.99H12.8009V52.06Z" fill="#FCCBC6"/>
<path d="M0.660156 52.06H12.2702L12.3802 54.43H6.14016L0.660156 52.06Z" fill="#FCCBC6"/>
<path d="M60.2598 75.9L63.5298 84.83H67.4298L63.2698 73.46L60.2598 75.9Z" fill="#FF8C7A"/>
<path d="M45.5806 75.85H58.3306L62.8106 72.22L55.0006 50.77H50.8706L38.3906 84.83H42.2906L45.5806 75.85ZM52.9106 55.85L58.9106 72.2H46.9106L52.9106 55.85Z" fill="#FF8C7A"/>
<path d="M105.421 139.59C115.071 139.59 122.901 134.51 122.901 128.25C122.901 121.99 115.071 116.91 105.421 116.91H94.6406V118H106.121C108.756 118.117 111.244 119.245 113.067 121.151C114.891 123.057 115.908 125.593 115.908 128.23C115.908 130.868 114.891 133.403 113.067 135.309C111.244 137.215 108.756 138.344 106.121 138.46H95.0006V139.57L105.421 139.59Z" fill="#FC5358"/>
<path d="M99.0806 8.78L95.2805 14.42H88.6105L84.8105 8.78V7.81H99.0806V8.78Z" fill="#253245"/>
<path d="M61.1504 138.63L64.9804 132.99H71.6504L75.4504 138.63V139.59H61.1504V138.63Z" fill="#253245"/>
<path d="M12.8204 2.37H6.15039V39.48H12.8204V2.37Z" fill="#FFD93F"/>
<path d="M67.5801 71.44V75.85H95.2701V71.44H67.5801Z" fill="#253245"/>
<path d="M75.4304 8.78L71.6304 14.42H64.9604L61.1504 8.78V7.81H75.4304V8.78Z" fill="#253245"/>
<path d="M18.2897 41.86H0.679688L6.05969 39.49H12.8097L18.2897 41.86Z" fill="#FFD93F"/>
<path d="M0.679688 0H12.8197V2.38H6.15969L0.679688 0Z" fill="#FFD93F"/>
<path d="M12.8192 1.19L37.4492 1.19V2.86102e-06L12.8192 2.86102e-06V1.19Z" fill="#FFD93F"/>
<path d="M29.2793 1.19H37.4393V13.28L29.2793 1.19Z" fill="#FFD93F"/>
<path d="M95.2794 45.9V7.81H88.6094V51.3L95.2794 45.9Z" fill="#253245"/>
<path d="M88.6094 52.92V97.56H95.2794V47.51L88.6094 52.92Z" fill="#253245"/>
<path d="M64.9609 72.09V136.56H71.6309V66.69L64.9609 72.09Z" fill="#253245"/>
<path d="M71.6309 65.07V7.81H64.9609V70.48L71.6309 65.07Z" fill="#253245"/>
<path d="M22.3095 75.85C31.9595 75.85 39.7895 70.52 39.7895 63.95C39.7895 57.38 31.9995 52.06 22.3095 52.06H11.5295V52.7H22.9995C28.4195 52.7 32.8095 58.03 32.8095 63.95C32.8095 69.87 29.4595 74.95 22.9995 74.95H10.6895L11.5295 75.86L22.3095 75.85Z" fill="#FCCBC6"/>
<path d="M12.8204 112.75V95.35H6.15039V118.16L12.8204 112.75Z" fill="#253245"/>
<path d="M6.15039 119.78V139.59H12.8204V114.37L6.15039 119.78Z" fill="#253245"/>
</svg>
