<svg width="44" height="32" viewBox="0 0 44 32" fill="none" xmlns="http://www.w3.org/2000/svg">
<path d="M22.896 23.328C22.896 18.912 24.528 14.496 27.792 10.08C31.056 5.664 34.992 2.304 39.6 0L43.92 4.752C37.68 7.92 33.648 11.952 31.824 16.848C32.016 16.752 32.448 16.704 33.12 16.704C34.752 16.704 36.144 17.328 37.296 18.576C38.544 19.728 39.168 21.264 39.168 23.184C39.168 25.488 38.304 27.504 36.576 29.232C34.848 30.864 32.832 31.68 30.528 31.68C28.32 31.68 26.496 30.96 25.056 29.52C23.616 28.08 22.896 26.016 22.896 23.328ZM0 23.328C0 18.912 1.632 14.496 4.896 10.08C8.16 5.664 12.096 2.304 16.704 0L21.024 4.752C14.592 8.016 10.56 12.048 8.928 16.848C9.024 16.752 9.408 16.704 10.08 16.704C11.808 16.704 13.248 17.328 14.4 18.576C15.648 19.728 16.272 21.264 16.272 23.184C16.272 25.488 15.408 27.504 13.68 29.232C11.952 30.864 9.936 31.68 7.632 31.68C5.424 31.68 3.6 30.96 2.16 29.52C0.720001 28.08 0 26.016 0 23.328Z" fill="#A27EB8"/>
<path d="M22.896 23.328C22.896 18.912 24.528 14.496 27.792 10.08C31.056 5.664 34.992 2.304 39.6 0L43.92 4.752C37.68 7.92 33.648 11.952 31.824 16.848C32.016 16.752 32.448 16.704 33.12 16.704C34.752 16.704 36.144 17.328 37.296 18.576C38.544 19.728 39.168 21.264 39.168 23.184C39.168 25.488 38.304 27.504 36.576 29.232C34.848 30.864 32.832 31.68 30.528 31.68C28.32 31.68 26.496 30.96 25.056 29.52C23.616 28.08 22.896 26.016 22.896 23.328ZM0 23.328C0 18.912 1.632 14.496 4.896 10.08C8.16 5.664 12.096 2.304 16.704 0L21.024 4.752C14.592 8.016 10.56 12.048 8.928 16.848C9.024 16.752 9.408 16.704 10.08 16.704C11.808 16.704 13.248 17.328 14.4 18.576C15.648 19.728 16.272 21.264 16.272 23.184C16.272 25.488 15.408 27.504 13.68 29.232C11.952 30.864 9.936 31.68 7.632 31.68C5.424 31.68 3.6 30.96 2.16 29.52C0.720001 28.08 0 26.016 0 23.328Z" fill="url(#paint0_linear_104_475)"/>
<defs>
<linearGradient id="paint0_linear_104_475" x1="22.7835" y1="31.68" x2="29.9834" y2="1.66685" gradientUnits="userSpaceOnUse">
<stop stop-color="#624F9E"/>
<stop offset="1" stop-color="#A17EB8"/>
</linearGradient>
</defs>
</svg>
